<svg width="32" height="32" viewBox="0 0 32 32" fill="none" xmlns="http://www.w3.org/2000/svg">
  <defs>
    <linearGradient id="grad1" x1="0%" y1="0%" x2="100%" y2="100%">
      <stop offset="0%" style="stop-color:#667eea;stop-opacity:1" />
      <stop offset="100%" style="stop-color:#764ba2;stop-opacity:1" />
    </linearGradient>
    <linearGradient id="grad2" x1="0%" y1="0%" x2="100%" y2="100%">
      <stop offset="0%" style="stop-color:#4facfe;stop-opacity:1" />
      <stop offset="100%" style="stop-color:#00f2fe;stop-opacity:1" />
    </linearGradient>
  </defs>
  
  <!-- Background Circle -->
  <circle cx="16" cy="16" r="15" fill="url(#grad1)" stroke="rgba(255,255,255,0.2)" stroke-width="2"/>
  
  <!-- 3D Box Icon -->
  <g transform="translate(8, 8)">
    <!-- Front face -->
    <path d="M2 6 L8 6 L8 12 L2 12 Z" fill="url(#grad2)" opacity="0.9"/>
    <!-- Top face -->
    <path d="M2 6 L5 3 L11 3 L8 6 Z" fill="rgba(255,255,255,0.8)"/>
    <!-- Right face -->
    <path d="M8 6 L11 3 L11 9 L8 12 Z" fill="rgba(255,255,255,0.6)"/>
    
    <!-- Wireframe lines -->
    <path d="M2 6 L8 6 L8 12 L2 12 Z" stroke="rgba(255,255,255,0.8)" stroke-width="1" fill="none"/>
    <path d="M2 6 L5 3 L11 3 L8 6" stroke="rgba(255,255,255,0.8)" stroke-width="1" fill="none"/>
    <path d="M8 6 L11 3 L11 9 L8 12" stroke="rgba(255,255,255,0.8)" stroke-width="1" fill="none"/>
    <path d="M2 12 L5 9 L11 9" stroke="rgba(255,255,255,0.8)" stroke-width="1" fill="none"/>
    <path d="M5 3 L5 9" stroke="rgba(255,255,255,0.8)" stroke-width="1" fill="none"/>
  </g>
  
  <!-- Subtle glow effect -->
  <circle cx="16" cy="16" r="15" fill="none" stroke="url(#grad2)" stroke-width="1" opacity="0.3"/>
</svg>