<svg width="32" height="32" viewBox="0 0 32 32" fill="none" xmlns="http://www.w3.org/2000/svg">
  <!-- Background -->
  <rect width="32" height="32" rx="6" fill="#6366f1"/>
  
  <!-- 3D Cube representation with multiple views -->
  <!-- Front face -->
  <rect x="8" y="10" width="8" height="8" fill="#ffffff" opacity="0.9"/>
  <rect x="8" y="10" width="8" height="8" fill="none" stroke="#e5e7eb" stroke-width="0.5"/>
  
  <!-- Right face (isometric) -->
  <path d="M16 10 L22 7 L22 15 L16 18 Z" fill="#ffffff" opacity="0.7"/>
  <path d="M16 10 L22 7 L22 15 L16 18 Z" fill="none" stroke="#e5e7eb" stroke-width="0.5"/>
  
  <!-- Top face (isometric) -->
  <path d="M8 10 L14 7 L22 7 L16 10 Z" fill="#ffffff" opacity="0.8"/>
  <path d="M8 10 L14 7 L22 7 L16 10 Z" fill="none" stroke="#e5e7eb" stroke-width="0.5"/>
  
  <!-- Multi-view indicator dots -->
  <circle cx="6" cy="6" r="1.5" fill="#fbbf24"/>
  <circle cx="26" cy="6" r="1.5" fill="#fbbf24"/>
  <circle cx="6" cy="26" r="1.5" fill="#fbbf24"/>
  <circle cx="26" cy="26" r="1.5" fill="#fbbf24"/>
  
  <!-- Center export symbol -->
  <circle cx="16" cy="24" r="2" fill="#10b981"/>
  <path d="M14.5 24 L16 22.5 L17.5 24 M16 22.5 V25.5" stroke="#ffffff" stroke-width="0.8" stroke-linecap="round" stroke-linejoin="round"/>
</svg>
